<svg width="600" height="600" viewBox="0 0 600 600" fill="none" xmlns="http://www.w3.org/2000/svg">
<path fill-rule="evenodd" clip-rule="evenodd" d="M299.392 382.256C231.298 432.992 140.884 437.93 77.357 388.261C50.0667 366.924 31.3593 338.34 21.4979 306.465C89.5916 255.73 180.005 250.791 243.532 300.46C270.823 321.798 289.53 350.381 299.392 382.256Z" fill="#C3EA21"/>
<path fill-rule="evenodd" clip-rule="evenodd" d="M300.498 382.256C368.592 432.992 459.005 437.93 522.532 388.261C549.823 366.924 568.53 338.34 578.392 306.465C510.298 255.73 419.884 250.791 356.357 300.46C329.067 321.798 310.359 350.381 300.498 382.256Z" fill="#206B34"/>
<path fill-rule="evenodd" clip-rule="evenodd" d="M299.776 382.524C354.823 385.558 408.211 365.428 443.661 322.737C479.111 280.046 489.09 223.869 475.993 170.317C420.946 167.283 367.559 187.413 332.108 230.104C296.658 272.794 286.68 328.971 299.776 382.524Z" fill="#369151"/>
<path fill-rule="evenodd" clip-rule="evenodd" d="M299.993 382.524C244.946 385.558 191.559 365.428 156.108 322.737C120.658 280.046 110.68 223.869 123.776 170.317C178.824 167.283 232.211 187.413 267.661 230.104C303.112 272.794 313.09 328.971 299.993 382.524Z" fill="#8ADB53"/>
<path fill-rule="evenodd" clip-rule="evenodd" d="M300.5 382.833C344.788 350 373 300.407 373 244.917C373 189.426 344.788 139.833 300.5 107C256.212 139.833 228 189.426 228 244.917C228 300.407 256.212 350 300.5 382.833Z" fill="#4FC16E"/>
</svg>
